<svg xmlns="http://www.w3.org/2000/svg" width="71.034" height="42.422" viewBox="0 0 71.034 42.422">
  <g id="_1615889129-78426" data-name="1615889129-78426" transform="translate(-95.69 -22.261)">
    <g id="Group_11" data-name="Group 11" transform="translate(108.988 33.41)">
      <g id="Group_10" data-name="Group 10">
        <path id="Path_5" data-name="Path 5" d="M422.269,306.513h-2l.24-2.373h6.5l-.24,2.373h-2.053l-1.813,17.38H420.4Z" transform="translate(-420.27 -303.74)" fill="#fff"/>
        <path id="Path_6" data-name="Path 6" d="M523.343,420.8l2.026-.107v.64a2.62,2.62,0,0,1,2.079-.72l-.24,2.373c-1.466.053-1.733.586-1.973,2.772l-1.039,9.836H521.77Z" transform="translate(-517.612 -415.438)" fill="#fff"/>
        <path id="Path_7" data-name="Path 7" d="M631.73,431.205c0-.56.053-1.333.133-2.186.506-4.825,1.2-5.811,4.425-5.891.186-1.786.186-2.132-.667-2.132a9.094,9.094,0,0,0-1.626.213l-.533-2.239a9.275,9.275,0,0,1,2.639-.32c2.639,0,2.852,1.066,2.559,3.972l-.8,7.837c-.107.826-.08.986.506.986l-.24,2.266a6.75,6.75,0,0,1-.747.027c-1.12,0-1.279-.186-1.439-.586-.4.48-1.039.667-2.212.667C632.156,433.818,631.73,432.858,631.73,431.205Zm4.025-2.985.293-2.879c-1.413.053-1.546.4-1.892,3.625-.08.773-.133,1.359-.133,1.759,0,.667.133.933.56.933C635.408,431.658,635.435,431.392,635.755,428.22Z" transform="translate(-623.067 -413.559)" fill="#fff"/>
        <path id="Path_8" data-name="Path 8" d="M1001.28,430.512c0-1.066.133-2.479.347-4.478.4-3.865.586-5.6,1.493-6.584a3.019,3.019,0,0,1,2.319-.8c2.239,0,2.665,1.039,2.665,2.985,0,.986-.186,2.479-.4,4.718l-.106,1.146h-3.732c-.107,1.2-.186,2.346-.186,2.826,0,1.093.32,1.253.853,1.253a6.936,6.936,0,0,0,1.786-.293l.506,2.159a7.958,7.958,0,0,1-2.639.4C1001.973,433.844,1001.28,432.751,1001.28,430.512Zm2.8-5.225h1.466c.186-1.733.32-2.906.32-3.412,0-.667-.08-.88-.533-.88a.648.648,0,0,0-.506.16C1004.479,421.529,1004.372,422.462,1004.079,425.287Z" transform="translate(-977.476 -413.559)" fill="#fff"/>
        <path id="Path_9" data-name="Path 9" d="M1164.2,420.8l2.026-.107v.64a2.62,2.62,0,0,1,2.079-.72l-.24,2.373c-1.466.053-1.733.586-1.973,2.772l-1.039,9.836h-2.426Z" transform="translate(-1132.216 -415.438)" fill="#fff"/>
        <path id="Path_10" data-name="Path 10" d="M1273.89,320.686l.773-2.319a9.459,9.459,0,0,0,1.919.24c1.2,0,1.573-.586,1.226-2.426l-1.892-9.676a9.013,9.013,0,0,1-.24-1.919c.027-2.026,1.066-3.705,3.625-3.705a8.608,8.608,0,0,1,2.373.213l-.8,2.4a6.053,6.053,0,0,0-1.333-.16c-1.386,0-1.546.986-1.279,2.346l1.812,9.33a11.585,11.585,0,0,1,.32,2.346c0,1.973-.933,3.572-3.732,3.572A14.378,14.378,0,0,1,1273.89,320.686Z" transform="translate(-1238.918 -300.614)" fill="#005dac"/>
        <path id="Path_11" data-name="Path 11" d="M1452.15,430.512c0-1.066.133-2.479.347-4.478.4-3.865.586-5.6,1.493-6.584a3.019,3.019,0,0,1,2.319-.8c2.239,0,2.666,1.039,2.666,2.985,0,.986-.187,2.479-.4,4.718l-.106,1.146h-3.732c-.107,1.2-.187,2.346-.187,2.826,0,1.093.32,1.253.853,1.253a6.937,6.937,0,0,0,1.786-.293l.506,2.159a7.957,7.957,0,0,1-2.639.4C1452.843,433.844,1452.15,432.751,1452.15,430.512Zm2.8-5.225h1.466c.186-1.733.32-2.906.32-3.412,0-.667-.08-.88-.533-.88a.648.648,0,0,0-.506.16C1455.349,421.529,1455.242,422.462,1454.949,425.287Z" transform="translate(-1409.875 -413.559)" fill="#005dac"/>
        <path id="Path_12" data-name="Path 12" d="M1620.844,311.52l1.786-17.14h2.426l-1.786,17.086c-.053.613,0,.773.4.773h.347l-.24,2.292c-.16.027-.773.027-.906.027C1620.95,314.559,1620.657,313.573,1620.844,311.52Z" transform="translate(-1571.611 -294.38)" fill="#005dac"/>
        <path id="Path_13" data-name="Path 13" d="M1725.594,311.52l1.786-17.14h2.426l-1.786,17.086c-.053.613,0,.773.4.773h.347l-.24,2.292c-.16.027-.773.027-.906.027C1725.7,314.559,1725.407,313.573,1725.594,311.52Z" transform="translate(-1672.069 -294.38)" fill="#005dac"/>
      </g>
    </g>
    <g id="Group_13" data-name="Group 13" transform="translate(96.025 22.261)">
      <path id="Path_14" data-name="Path 14" d="M110.378,130c-4.358-5.272-1.626-14.724,6.1-21.113s17.491-7.289,21.861-2.048a9.55,9.55,0,0,0-.891-1.284c-4.868-5.888-15.81-4.877-24.442,2.258s-11.683,17.693-6.815,23.581c4.734,5.726,14.711,5.247,23.222-1.364C122.149,134.808,114.306,134.755,110.378,130Z" transform="translate(-103.876 -98.472)" fill="#005dac"/>
      <g id="Group_12" data-name="Group 12" transform="translate(16.678 0)">
        <path id="Path_15" data-name="Path 15" d="M819,191.38l-.984,9.845a2.374,2.374,0,0,0-1.866-.533,2,2,0,0,0-1.6.56c-.88.826-1.093,2.665-1.519,6.85a49.92,49.92,0,0,0-.427,5.091c0,1.839.72,2.692,2.106,2.692a2.945,2.945,0,0,0,2.159-.693v.586l2.053-.08,2-19.062A10.931,10.931,0,0,0,819,191.38Zm-1.7,17.068c-.48,4.451-.533,5.251-1.493,5.251-.56,0-.746-.16-.746-1.066,0-.773.16-2.026.373-4.238.506-4.878.506-5.278,1.466-5.278.533,0,.747.267.747,1.2C817.638,205.116,817.5,206.4,817.291,208.448Z" transform="translate(-800.243 -184.451)" fill="#fff"/>
        <path id="Path_16" data-name="Path 16" d="M539.024,38.344c-.61-.944-1.735-1.708-3.808-1.708a5.208,5.208,0,0,0-3.06.853,12.076,12.076,0,0,0-2.391-9.144c-3.891-4.707-11.387-5.317-18.794-2.18,9.677-5.405,20.188-5.289,25.329.931A14.216,14.216,0,0,1,539.024,38.344Z" transform="translate(-510.97 -22.261)" fill="#fff"/>
      </g>
    </g>
    <path id="Path_17" data-name="Path 17" d="M164.594,750.9h-33.3l-3.269.128a6.738,6.738,0,0,1-.857.054,3.693,3.693,0,0,1-3.032-1.359c-.043-.054-.084-.108-.123-.164-9.276,7.58-20.971,8.6-26.188,2.286A10.727,10.727,0,0,1,95.69,747.5a13.122,13.122,0,0,0,2.9,7.853c4.942,5.979,14.849,6.356,24.2,1.585Z" transform="translate(0 -695.526)" fill="#fff"/>
  </g>
</svg>
